<svg fill="none" height="24" viewBox="0 0 23 24" width="23" xmlns="http://www.w3.org/2000/svg"><path d="m6.6571 0c-3.67145 0-6.6571 3.12481-6.6571 6.96524v10.07126c0 3.8404 2.98565 6.9635 6.6571 6.9635h9.6858c3.6714 0 6.6571-3.1231 6.6571-6.9635v-10.07126c0-3.84043-2.9857-6.96524-6.6571-6.96524zm0 2.06322h9.6858c2.613 0 4.6863 2.16875 4.6863 4.90202v10.07126c0 2.7333-2.0733 4.9003-4.6863 4.9003h-9.6858c-2.61302 0-4.68469-2.167-4.68469-4.9003v-10.07126c0-2.73327 2.07167-4.90202 4.68469-4.90202zm11.0156 2.06319c-.762 0-1.3793.64571-1.3793 1.44268 0 .797.6173 1.44269 1.3793 1.44269.7619 0 1.3792-.64569 1.3792-1.44269 0-.79697-.6173-1.44268-1.3792-1.44268zm-6.1727 1.69432c-3.25107 0-5.90736 2.77857-5.90736 6.17927s2.65629 6.1793 5.90736 6.1793c3.2511 0 5.909-2.7786 5.909-6.1793s-2.6579-6.17927-5.909-6.17927zm0 2.06322c2.1853 0 3.9366 1.8302 3.9366 4.11605 0 2.2859-1.7513 4.1161-3.9366 4.1161-2.18528 0-3.93496-1.8302-3.93496-4.1161 0-2.28585 1.74968-4.11605 3.93496-4.11605z" fill="#575757"/></svg>