<svg fill="none" height="55" viewBox="0 0 55 55" width="55" xmlns="http://www.w3.org/2000/svg" xmlns:xlink="http://www.w3.org/1999/xlink"><clipPath id="a"><path d="m15 16h27v18h-27z"/></clipPath><circle cx="27.5" cy="27.5" fill="#ff7931" r="27.5"/><g clip-path="url(#a)" fill="#fff"><path d="m34.7999 23.4421c-2.0763 0-3.7653-1.6692-3.7653-3.7211 0-2.0518 1.6891-3.721 3.7653-3.721 2.0761 0 3.7652 1.6692 3.7652 3.721 0 2.0519-1.689 3.7211-3.7652 3.7211zm0-5.0681c-.7731 0-1.402.6043-1.402 1.347 0 .7428.6289 1.347 1.402 1.347.773 0 1.4019-.6042 1.4019-1.347 0-.7427-.6289-1.347-1.4019-1.347z"/><path d="m40.8183 34c-.0005 0-.001 0-.0014 0h-24.6353c-.4421 0-.8473-.248-1.0501-.6427-.2027-.3947-.1691-.8702.0872-1.2322l8.3527-11.7986c.2198-.3105.5746-.4961.9539-.4991.3769-.0029.737.1773.9615.4844l5.8754 8.0374 3.412-3.326c.243-.2371.5755-.3579.9133-.3318.3377.0261.6481.1964.8523.4679l5.1891 6.8972c.1694.2054.2711.469.2711.7566 0 .6555-.5291 1.1869-1.1817 1.1869zm-22.3463-2.3739h19.9707l-2.9822-3.9639-3.4253 3.3392c-.2451.2389-.5812.3597-.9215.331-.3404-.0286-.6518-.2038-.8539-.4803l-5.7102-7.8112z"/></g></svg>