<svg fill="none" height="18" viewBox="0 0 22 18" width="22" xmlns="http://www.w3.org/2000/svg"><path d="m22 2.13046c-.809.36148-1.679.6058-2.5919.71587.9317-.56264 1.6471-1.45312 1.9841-2.513987-.872.520946-1.8376.898807-2.8662 1.102487-.8228-.882933-1.9959-1.43483-3.294-1.43483-2.4927 0-4.5131 2.03437-4.5131 4.54398 0 .35629.0395.70321.1168 1.03558-3.7511-.18925-7.07669-1.99888-9.30275-4.747827-.38852.670827-.611064 1.451307-.611064 2.284227 0 1.57674.796464 2.96737 2.007844 3.78257-.73981-.02328-1.43582-.22779-2.044354-.56839-.000866.01915-.000872.03804-.000872.05704 0 2.20207 1.555936 4.03822 3.620416 4.45602-.37839.1038-.77702.1588-1.18868.1588-.29112 0-.57338-.0278-.84943-.081.57472 1.8052 2.2412 3.1192 4.21652 3.1559-1.54591 1.219-3.49167 1.9451-5.60636 1.9451-.364054 0-.723602-.0216-1.07697-.0633 1.99818 1.2893 4.37022 2.0413 6.91929 2.0413 8.30141 0 12.84041-6.924 12.84041-12.92936 0-.19693-.0045-.39251-.0127-.58738.8815-.6412 1.6466-1.44132 2.252-2.35277" fill="#575757"/></svg>